<svg xmlns="http://www.w3.org/2000/svg" viewBox="0 0 680 680">
  <defs>
    <linearGradient id="g1" x1="20%" y1="0%" x2="80%" y2="100%">
      <stop offset="0%" stop-color="#00cfff"/>
      <stop offset="40%" stop-color="#1a7fff"/>
      <stop offset="100%" stop-color="#0033cc"/>
    </linearGradient>
    <linearGradient id="g2" x1="0%" y1="0%" x2="0%" y2="60%">
      <stop offset="0%" stop-color="white" stop-opacity="0.5"/>
      <stop offset="100%" stop-color="white" stop-opacity="0"/>
    </linearGradient>
  </defs>
  <path d="M340,60 L540,175 L540,445 Q540,580 340,625 Q140,580 140,445 L140,175 Z" fill="url(#g1)"/>
  <path d="M340,60 L540,175 L540,310 Q445,275 340,255 Q255,245 140,275 L140,175 Z" fill="url(#g2)" opacity="0.7"/>
  <polyline points="175,345 235,345 255,298 278,398 304,282 328,345 395,345 418,302 442,385 464,345 510,345"
    fill="none" stroke="white" stroke-width="22" stroke-linecap="round" stroke-linejoin="round"/>
</svg>
